<?xml version="1.0" encoding="UTF-8"?>
<svg width="1440px" height="3146px" viewBox="0 0 1440 3146" version="1.1" xmlns="http://www.w3.org/2000/svg" xmlns:xlink="http://www.w3.org/1999/xlink">
    <!-- Generator: Sketch 52.5 (67469) - http://www.bohemiancoding.com/sketch -->
    <title>Group 12</title>
    <desc>Created with Sketch.</desc>
    <g id="Pages" stroke="none" stroke-width="1" fill="none" fill-rule="evenodd">
        <g id="Home">
            <g id="Group-12" transform="translate(-319.000000, -442.000000)">
                <g id="gems/diamond-2" transform="translate(814.000000, 916.000000)">
                    <g id="diamond-2">
                        <polygon id="Path" fill="#990A62" points="116.642161 189.09299 103.512143 193.479965 2.08467821 115.857982"></polygon>
                        <polygon id="Path" fill="#FF76AE" points="116.642161 189.09299 115.478887 166.937406 26.1947687 70.2613111"></polygon>
                        <polygon id="Path" fill="#00EDFF" points="115.478887 166.937406 36.9291339 61.8048632 26.1947687 70.2613111"></polygon>
                        <polygon id="Path" fill="#FF4591" points="116.642161 189.09299 26.1947687 70.2613111 2.08467821 115.857982"></polygon>
                        <polygon id="Path" fill="#00CBFF" points="2.08467821 115.857982 0 0 26.1947687 70.2613111"></polygon>
                        <polygon id="Path" fill="#0578A8" points="36.9291339 61.8048632 0 0 26.1947687 70.2613111"></polygon>
                    </g>
                </g>
                <g id="gems/diamond-2" transform="translate(1484.000000, 0.000000)">
                    <g id="diamond-2">
                        <polygon id="Path" fill="#990A62" points="433.669573 704.712533 384.852841 721.061933 7.75072668 431.780007"></polygon>
                        <polygon id="Path" fill="#FF76AE" points="433.669573 704.712533 429.344581 622.143012 97.3908069 261.850144"></polygon>
                        <polygon id="Path" fill="#00EDFF" points="429.344581 622.143012 137.300626 230.334619 97.3908069 261.850144"></polygon>
                        <polygon id="Path" fill="#FF4591" points="433.669573 704.712533 97.3908069 261.850144 7.75072668 431.780007"></polygon>
                        <polygon id="Path" fill="#00CBFF" points="7.75072668 431.780007 0 0 97.3908069 261.850144"></polygon>
                        <polygon id="Path" fill="#0578A8" points="137.300626 230.334619 0 0 97.3908069 261.850144"></polygon>
                    </g>
                </g>
                <g id="gems/diamond-3" transform="translate(1100.000000, 1021.000000)">
                    <g id="diamond-3">
                        <polygon id="Path" fill="#990A62" points="0.352351995 13.1454398 11.7050558 23.1623037 92.7034228 50.6147833"></polygon>
                        <polygon id="Path" fill="#FF76AE" points="0.352351995 13.1454398 0 3.93395195 69.5953271 15.4028158"></polygon>
                        <polygon id="Path" fill="#00EDFF" points="0 3.93395195 60.0198712 5.02972793 69.5953271 15.4028158"></polygon>
                        <polygon id="Path" fill="#FF4591" points="0.352351995 13.1454398 69.5953271 15.4028158 92.7034228 50.6147833"></polygon>
                        <polygon id="Path" fill="#00CBFF" points="92.7034228 50.6147833 87.4917108 0 69.5953271 15.4028158"></polygon>
                        <polygon id="Path" fill="#0578A8" points="60.0198712 5.02972793 87.4917108 0 69.5953271 15.4028158"></polygon>
                    </g>
                </g>
                <g id="gems/diamond-4" transform="translate(421.000000, 762.000000)">
                    <g id="diamond-4">
                        <polygon id="Path" fill="#E90A8A" points="108.842172 16.209845 151.667402 87.5806363 30.2503919 10.5475019"></polygon>
                        <polygon id="Path" fill="#0578A8" points="108.842172 16.209845 7.77031937 0 30.2503919 10.5475019"></polygon>
                        <polygon id="Path" fill="#00EDFF" points="7.77031937 0 28.1616377 35.0000952 30.2503919 10.5475019"></polygon>
                        <polygon id="Path" fill="#00CBFF" points="28.1616377 35.0000952 151.667402 87.5806363 30.2503919 10.5475019"></polygon>
                        <polygon id="Path" fill="#FF76AE" points="151.667402 87.5806363 0 30.072823 28.1616377 35.0000952"></polygon>
                        <polygon id="Path" fill="#E90A8A" points="151.667402 87.5806363 48.5067957 65.5859364 0 30.072823"></polygon>
                    </g>
                </g>
                <g id="gems/diamond-6" transform="translate(1387.000000, 714.000000)">
                    <g id="diamond-6">
                        <polygon id="Path" fill="#E90A8A" points="163.398587 207.891549 0 203.245149 210.436465 120.183006"></polygon>
                        <polygon id="Path" fill="#0578A8" points="163.398587 207.891549 243.684585 95.2628147 210.436465 120.183006"></polygon>
                        <polygon id="Path" fill="#00EDFF" points="243.684585 95.2628147 197.579908 40.9038075 210.436465 120.183006"></polygon>
                        <polygon id="Path" fill="#00CBFF" points="197.579908 40.9038075 0 203.245149 210.436465 120.183006"></polygon>
                        <polygon id="Path" fill="#FF76AE" points="0 203.245149 203.364201 0 197.579908 40.9038075"></polygon>
                        <polygon id="Path" fill="#E90A8A" points="0 203.245149 112.010921 21.0094717 203.364201 0"></polygon>
                    </g>
                </g>
                <g id="gems/diamond-7" transform="translate(831.000000, 544.000000)">
                    <g id="diamond-7">
                        <polygon id="Path" fill="#E90A8A" points="50.6452984 0 85.328277 27.0842594 12.6867922 84.4639797"></polygon>
                        <polygon id="Path" fill="#0578A8" points="50.6452984 0 0 99.0589304 12.6867922 84.4639797"></polygon>
                        <polygon id="Path" fill="#00EDFF" points="0 99.0589304 16.7224303 113.044456 12.6867922 84.4639797"></polygon>
                        <polygon id="Path" fill="#00CBFF" points="16.7224303 113.044456 85.328277 27.0842594 12.6867922 84.4639797"></polygon>
                        <polygon id="Path" fill="#FF76AE" points="85.328277 27.0842594 26.1141044 108.770667 16.7224303 113.044456"></polygon>
                        <polygon id="Path" fill="#E90A8A" points="85.328277 27.0842594 85.328277 53.7778616 26.1141044 108.770667"></polygon>
                    </g>
                </g>
                <g id="gems/diamond-8" transform="translate(767.000000, 723.000000)">
                    <g id="diamond-8">
                        <polygon id="Path" fill="#00EDFF" points="0 10.6293845 24.3045437 0 7.5503999 15.1417536"></polygon>
                        <polygon id="Path" fill="#FF4591" points="0 10.6293845 2.18380797 23.5707997 7.5503999 15.1417536"></polygon>
                        <polygon id="Path" fill="#19264F" points="2.18380797 23.5707997 31.7620156 24.2893535 7.5503999 15.1417536"></polygon>
                        <polygon id="Path" fill="#00EDFF" points="7.5503999 15.1417536 46.5685434 2.23384612 31.7620156 24.2893535"></polygon>
                        <polygon id="Path" fill="#FF76AE" points="7.5503999 15.1417536 24.3045437 0 46.5685434 2.23384612"></polygon>
                    </g>
                </g>
                <g id="gems/diamond-5" transform="translate(1124.000000, 529.000000)">
                    <g id="diamond-5-2">
                        <g id="diamond-5">
                            <polygon id="Path" fill="#19264F" points="9.33151988 67.8684151 122.897278 131.334366 218.222045 100.575199"></polygon>
                            <polygon id="Path" fill="#0578A8" points="9.33151988 67.8684151 0 16.0649278 45.1281594 45.9954874"></polygon>
                            <polygon id="Path" fill="#00CBFF" points="45.1281594 45.9954874 218.222045 100.575199 9.33151988 67.8684151"></polygon>
                            <polygon id="Path" fill="#FF4591" points="218.222045 100.575199 133.60723 0 140.42195 20.7848957"></polygon>
                            <polygon id="Path" fill="#FF76AE" points="133.60723 0 0 16.0649278 140.42195 20.7848957"></polygon>
                            <polyline id="Path" fill="#FF4591" points="140.42195 20.7848957 0 16.0649278 45.1281594 45.9954874"></polyline>
                            <polygon id="Path" fill="#E90A8A" points="45.5269754 46.1774714 218.620861 100.757183 140.820766 20.9668797"></polygon>
                        </g>
                    </g>
                </g>
                <g id="gems/diamond-1" transform="translate(1433.000000, 1204.500000) scale(-1, 1) translate(-1433.000000, -1204.500000) translate(1193.000000, 1049.000000)">
                    <g id="diamond-1">
                        <polygon id="Path" fill="#E90A8A" points="479.578061 112.167836 217.247376 229.213863 251.220367 32.4295804"></polygon>
                        <polygon id="Path" fill="#0578A8" points="479.578061 112.167836 236.484062 0 251.220367 32.4295804"></polygon>
                        <polygon id="Path" fill="#00EDFF" points="236.484062 0 105.820121 56.8205372 251.220367 32.4295804"></polygon>
                        <polygon id="Path" fill="#00CBFF" points="105.820121 56.8205372 217.247376 229.213863 251.220367 32.4295804"></polygon>
                        <polygon id="Path" fill="#FF76AE" points="217.247376 229.213863 40.4056027 25.1306324 105.820121 56.8205372"></polygon>
                        <polygon id="Path" fill="#FF4591" points="217.247376 229.213863 0 108.854578 40.4056027 25.1306324"></polygon>
                        <polygon id="Path" fill="#E90A8A" points="0 108.854578 158.277698 310.883834 217.247376 229.213863"></polygon>
                        <polygon id="Path" fill="#990A62" points="217.247376 229.213863 479.578061 112.167836 158.277698 310.883834"></polygon>
                    </g>
                </g>
                <g id="gems/diamond-4" transform="translate(1182.500000, 2611.000000) scale(-1, 1) translate(-1182.500000, -2611.000000) translate(1100.000000, 2563.000000)">
                    <g id="diamond-4">
                        <polygon id="Path" fill="#E90A8A" points="118.151042 17.6834673 164.638956 95.5425124 32.8375964 11.5063657"></polygon>
                        <polygon id="Path" fill="#0578A8" points="118.151042 17.6834673 8.43488616 0 32.8375964 11.5063657"></polygon>
                        <polygon id="Path" fill="#00EDFF" points="8.43488616 0 30.5701988 38.181922 32.8375964 11.5063657"></polygon>
                        <polygon id="Path" fill="#00CBFF" points="30.5701988 38.181922 164.638956 95.5425124 32.8375964 11.5063657"></polygon>
                        <polygon id="Path" fill="#FF76AE" points="164.638956 95.5425124 0 32.806716 30.5701988 38.181922"></polygon>
                        <polygon id="Path" fill="#E90A8A" points="164.638956 95.5425124 52.6554032 71.5482942 0 32.806716"></polygon>
                    </g>
                </g>
                <g id="gems/diamond-3" transform="translate(248.500000, 2639.000000) scale(-1, 1) translate(-248.500000, -2639.000000) translate(0.000000, 2502.000000)">
                    <g id="diamond-3">
                        <polygon id="Path" fill="#990A62" points="1.88299937 70.6245199 62.5528253 124.440612 495.415066 271.930405"></polygon>
                        <polygon id="Path" fill="#FF76AE" points="1.88299937 70.6245199 0 21.1353497 371.923415 82.7523829"></polygon>
                        <polygon id="Path" fill="#00EDFF" points="0 21.1353497 320.751355 27.0224599 371.923415 82.7523829"></polygon>
                        <polygon id="Path" fill="#FF4591" points="1.88299937 70.6245199 371.923415 82.7523829 495.415066 271.930405"></polygon>
                        <polygon id="Path" fill="#00CBFF" points="495.415066 271.930405 467.563229 0 371.923415 82.7523829"></polygon>
                        <polygon id="Path" fill="#0578A8" points="320.751355 27.0224599 467.563229 0 371.923415 82.7523829"></polygon>
                    </g>
                </g>
                <g id="gems/diamond-5" transform="translate(1556.000000, 3357.000000)">
                    <g id="diamond-5-2">
                        <g id="diamond-5">
                            <polygon id="Path" fill="#19264F" points="17.3421397 126.482046 228.398138 244.759501 405.554212 187.435598"></polygon>
                            <polygon id="Path" fill="#0578A8" points="17.3421397 126.482046 0 29.9391836 83.8683145 85.7188629"></polygon>
                            <polygon id="Path" fill="#00CBFF" points="83.8683145 85.7188629 405.554212 187.435598 17.3421397 126.482046"></polygon>
                            <polygon id="Path" fill="#FF4591" points="405.554212 187.435598 248.302021 0 260.966821 38.7354875"></polygon>
                            <polygon id="Path" fill="#FF76AE" points="248.302021 0 0 29.9391836 260.966821 38.7354875"></polygon>
                            <polyline id="Path" fill="#FF4591" points="260.966821 38.7354875 0 29.9391836 83.8683145 85.7188629"></polyline>
                            <polygon id="Path" fill="#E90A8A" points="84.6094931 86.0580149 406.29539 187.77475 261.707999 39.0746395"></polygon>
                        </g>
                    </g>
                </g>
            </g>
        </g>
    </g>
</svg>