<?xml version="1.0" encoding="UTF-8"?>
<svg width="22px" height="22px" viewBox="0 0 22 22" version="1.1" xmlns="http://www.w3.org/2000/svg" xmlns:xlink="http://www.w3.org/1999/xlink">
    <!-- Generator: Sketch 52.5 (67469) - http://www.bohemiancoding.com/sketch -->
    <title>Button</title>
    <desc>Created with Sketch.</desc>
    <g id="Symbols" stroke="none" stroke-width="1" fill="none" fill-rule="evenodd">
        <g id="Audio-Player/Playing" transform="translate(-21.000000, -21.000000)" fill="#00CBFF" fill-rule="nonzero">
            <g id="Player">
                <g id="Icon/Pause---Alt" transform="translate(16.000000, 16.000000)">
                    <path d="M16,26.6666667 C10.1089627,26.6666667 5.33333333,21.8910373 5.33333333,16 C5.33333333,10.1089627 10.1089627,5.33333333 16,5.33333333 C21.8910373,5.33333333 26.6666667,10.1089627 26.6666667,16 C26.6666667,21.8910373 21.8910373,26.6666667 16,26.6666667 Z M14.2857143,12 L12.5714286,12 C12.2285714,12 12,12.2285714 12,12.5714286 L12,19.4285714 C12,19.7714286 12.2285714,20 12.5714286,20 L14.2857143,20 C14.6285714,20 14.8571429,19.7714286 14.8571429,19.4285714 L14.8571429,12.5714286 C14.8571429,12.2285714 14.6285714,12 14.2857143,12 Z M19.4285714,12 L17.7142857,12 C17.3714286,12 17.1428571,12.2285714 17.1428571,12.5714286 L17.1428571,19.4285714 C17.1428571,19.7714286 17.3714286,20 17.7142857,20 L19.4285714,20 C19.7714286,20 20,19.7714286 20,19.4285714 L20,12.5714286 C20,12.2285714 19.7714286,12 19.4285714,12 Z" id="Fill"></path>
                </g>
            </g>
        </g>
    </g>
</svg>