<?xml version="1.0" encoding="UTF-8"?>
<svg width="40px" height="40px" viewBox="0 0 40 40" version="1.1" xmlns="http://www.w3.org/2000/svg" xmlns:xlink="http://www.w3.org/1999/xlink">
    <!-- Generator: Sketch 52.5 (67469) - http://www.bohemiancoding.com/sketch -->
    <title>Avatar/Icon</title>
    <desc>Created with Sketch.</desc>
    <g id="Pages" stroke="none" stroke-width="1" fill="none" fill-rule="evenodd">
        <g id="Contact" transform="translate(-178.000000, -382.000000)" fill="#000000" fill-rule="nonzero">
            <g id="Sections" transform="translate(178.000000, 318.000000)">
                <g id="Section">
                    <g id="Row" transform="translate(0.000000, 64.000000)">
                        <g id="Avatar/Icon">
                            <circle id="Color" opacity="0.049999997" cx="20" cy="20" r="20"></circle>
                            <g id="Icon/Pin" transform="translate(8.000000, 8.000000)" opacity="0.25">
                                <path d="M19.7,9.7 L14.3,4.3 C13.9,3.9 13.3,3.9 12.9,4.3 C12.5,4.7 12.5,5.3 12.9,5.7 L13.5,6.3 L6.7,10 L5.7,9 C5.3,8.6 4.7,8.6 4.3,9 C3.9,9.4 3.9,10 4.3,10.4 L5.8,11.9 C5.8,11.9 5.8,11.9 5.8,11.9 L8.2,14.3 L4.6,18 L6,19.4 L9.7,15.7 L13.7,19.7 C14.2,20.2 14.9,19.9 15.1,19.7 C15.5,19.3 15.5,18.7 15.1,18.3 L14.1,17.3 L17.8,10.6 L18.4,11.2 C19,11.8 19.6,11.4 19.8,11.2 C20.1,10.8 20.1,10.1 19.7,9.7 Z M12.5,15.8 L8.2,11.5 L14.9,7.8 L16.2,9.1 L12.5,15.8 Z" id="Fill"></path>
                            </g>
                        </g>
                    </g>
                </g>
            </g>
        </g>
    </g>
</svg>